<?xml version="1.0" encoding="utf-8"?>
<!-- Generator: Adobe Illustrator 15.0.0, SVG Export Plug-In . SVG Version: 6.00 Build 0)  -->
<!DOCTYPE svg PUBLIC "-//W3C//DTD SVG 1.1//EN" "http://www.w3.org/Graphics/SVG/1.1/DTD/svg11.dtd">
<svg version="1.1" id="Layer_1" xmlns="http://www.w3.org/2000/svg" xmlns:xlink="http://www.w3.org/1999/xlink" x="0px" y="0px"
	 width="292.632px" height="57.369px" viewBox="0 0 292.632 57.369" enable-background="new 0 0 292.632 57.369"
	 xml:space="preserve">
<g>
	<path fill="#F50057" d="M286.291,18.591l-1.011-2.827l-2.769,6.667c-0.164,0.391-0.546,0.66-0.965,0.66
		c-0.021,0-0.039,0.009-0.059,0.007c-0.444-0.025-0.822-0.321-0.945-0.748l-2.702-9.272l-1.376,5.419
		c-0.116,0.467-0.535,0.661-1.016,0.661H262.88c4.039,5,10.759,9.938,11.812,10.656c0.251,0.17,0.537,0.322,0.828,0.322
		c0.287,0,0.577-0.186,0.827-0.356c1.053-0.719,7.772-5.622,11.81-10.622h-0.878C286.834,19.158,286.438,19.009,286.291,18.591z"/>
	<path fill="#F50057" d="M276.745,8.72c0.114-0.461,0.521-0.739,0.994-0.75c0.477-0.011,0.893,0.321,1.024,0.776l2.959,10.171
		l2.682-6.416c0.166-0.4,0.558-0.651,0.994-0.642c0.434,0.013,0.814,0.205,0.956,0.614l1.665,4.684h1.606
		c0.979-1,1.594-3.113,1.594-4.604c0-4.775-3.708-9.841-9.226-9.841c-3.242,0-5.289,1.599-6.475,3.024
		c-1.188-1.426-3.232-2.993-6.477-2.993c-5.517,0-9.225,5.028-9.225,9.805c0,1.489,0.615,3.608,1.595,4.608h13.22L276.745,8.72z"/>
</g>
<g>
	<path d="M1.854,54.4V13.798h8.43V29.28h15.782V13.798h8.431V54.4h-8.431V36.276H10.284V54.4H1.854z"/>
	<path d="M61.582,24.984c2.095,0.938,3.823,2.419,5.188,4.443c1.229,1.784,2.027,3.851,2.393,6.206
		c0.213,1.379,0.299,3.364,0.259,5.96H47.553c0.123,3.012,1.17,5.123,3.141,6.335c1.199,0.753,2.642,1.129,4.328,1.129
		c1.788,0,3.242-0.459,4.359-1.378c0.61-0.495,1.147-1.185,1.615-2.065h8.015c-0.211,1.781-1.181,3.59-2.911,5.425
		c-2.688,2.922-6.453,4.381-11.295,4.381c-3.996,0-7.521-1.231-10.576-3.693c-3.054-2.463-4.581-6.47-4.581-12.021
		c0-5.201,1.379-9.19,4.136-11.965s6.336-4.164,10.737-4.164C57.134,23.577,59.487,24.046,61.582,24.984z M49.837,31.766
		c-1.109,1.144-1.806,2.692-2.091,4.647h13.525c-0.144-2.084-0.84-3.664-2.093-4.744c-1.251-1.078-2.804-1.618-4.655-1.618
		C52.509,30.051,50.945,30.622,49.837,31.766z"/>
	<path d="M85.283,36.138c1.462-0.184,2.507-0.413,3.135-0.688c1.129-0.479,1.692-1.221,1.692-2.231c0-1.23-0.432-2.08-1.298-2.548
		c-0.864-0.469-2.135-0.703-3.812-0.703c-1.88,0-3.21,0.46-3.991,1.378c-0.56,0.679-0.932,1.598-1.118,2.754h-7.575
		c0.166-2.625,0.904-4.782,2.213-6.473c2.083-2.645,5.663-3.967,10.734-3.967c3.302,0,6.233,0.652,8.797,1.956
		c2.565,1.304,3.846,3.765,3.846,7.382V46.77c0,0.956,0.02,2.112,0.056,3.472c0.055,1.029,0.211,1.727,0.469,2.093
		c0.256,0.369,0.643,0.671,1.157,0.91V54.4h-8.54c-0.239-0.604-0.405-1.175-0.496-1.707s-0.165-1.139-0.22-1.818
		c-1.09,1.175-2.347,2.178-3.77,3.002c-1.698,0.975-3.619,1.46-5.762,1.46c-2.734,0-4.992-0.774-6.774-2.327
		c-1.783-1.55-2.673-3.75-2.673-6.597c0-3.69,1.434-6.362,4.3-8.016c1.572-0.899,3.885-1.543,6.938-1.928L85.283,36.138z
		 M90.083,39.801c-0.503,0.313-1.01,0.564-1.521,0.757c-0.513,0.194-1.216,0.373-2.108,0.539l-1.788,0.329
		c-1.674,0.295-2.877,0.653-3.608,1.074c-1.235,0.718-1.854,1.829-1.854,3.333c0,1.343,0.377,2.311,1.134,2.907
		c0.754,0.597,1.672,0.896,2.755,0.896c1.715,0,3.295-0.496,4.74-1.487c1.445-0.993,2.195-2.801,2.251-5.427V39.801z"/>
	<path d="M121.444,23.673c0.101,0.01,0.326,0.024,0.675,0.042v8.045c-0.496-0.059-0.937-0.094-1.321-0.112
		c-0.385-0.018-0.698-0.026-0.937-0.026c-3.16,0-5.281,1.028-6.363,3.084c-0.607,1.157-0.91,2.938-0.91,5.345V54.4h-7.906V24.377
		h7.494v5.232c1.211-2.001,2.268-3.368,3.167-4.104c1.47-1.229,3.378-1.846,5.729-1.846
		C121.219,23.66,121.343,23.665,121.444,23.673z"/>
	<path d="M123.636,30.244v-5.592h4.186v-8.374h7.768v8.374h4.876v5.592h-4.876v15.867c0,1.229,0.156,1.995,0.468,2.299
		c0.312,0.304,1.268,0.454,2.865,0.454c0.238,0,0.49-0.004,0.758-0.014c0.266-0.01,0.527-0.023,0.785-0.041v5.867l-3.719,0.138
		c-3.709,0.128-6.244-0.514-7.604-1.929c-0.881-0.898-1.321-2.285-1.321-4.159V30.244H123.636z"/>
	<path d="M171.143,27.984c2.246,2.848,3.369,6.52,3.369,11.02c0,4.664-1.108,8.53-3.324,11.597c-2.215,3.066-5.307,4.6-9.274,4.6
		c-2.491,0-4.493-0.496-6.008-1.487c-0.905-0.588-1.883-1.616-2.935-3.085V54.4h-7.741V13.853h7.851v14.435
		c0.998-1.396,2.098-2.461,3.3-3.195c1.422-0.917,3.234-1.377,5.435-1.377C165.787,23.715,168.896,25.138,171.143,27.984z
		 M164.582,46.275c1.129-1.634,1.694-3.784,1.694-6.445c0-2.131-0.28-3.893-0.834-5.29c-1.056-2.644-2.999-3.966-5.833-3.966
		c-2.87,0-4.842,1.296-5.916,3.884c-0.555,1.378-0.834,3.16-0.834,5.344c0,2.571,0.574,4.701,1.723,6.391
		c1.147,1.689,2.897,2.534,5.248,2.534C161.867,48.726,163.451,47.911,164.582,46.275z"/>
	<path d="M199.531,24.984c2.094,0.938,3.823,2.419,5.188,4.443c1.229,1.784,2.027,3.851,2.393,6.206
		c0.211,1.379,0.297,3.364,0.259,5.96h-21.868c0.123,3.012,1.168,5.123,3.139,6.335c1.201,0.753,2.644,1.129,4.329,1.129
		c1.788,0,3.241-0.459,4.36-1.378c0.609-0.495,1.146-1.185,1.615-2.065h8.014c-0.211,1.781-1.181,3.59-2.91,5.425
		c-2.688,2.922-6.454,4.381-11.295,4.381c-3.997,0-7.521-1.231-10.576-3.693c-3.055-2.463-4.581-6.47-4.581-12.021
		c0-5.201,1.378-9.19,4.136-11.965c2.757-2.774,6.337-4.164,10.736-4.164C195.08,23.577,197.437,24.046,199.531,24.984z
		 M187.785,31.766c-1.108,1.144-1.806,2.692-2.09,4.647h13.523c-0.143-2.084-0.839-3.664-2.092-4.744
		c-1.25-1.078-2.804-1.618-4.656-1.618C190.457,30.051,188.895,30.622,187.785,31.766z"/>
	<path d="M223.23,36.138c1.463-0.184,2.508-0.413,3.136-0.688c1.129-0.479,1.693-1.221,1.693-2.231c0-1.23-0.433-2.08-1.298-2.548
		c-0.866-0.469-2.136-0.703-3.811-0.703c-1.881,0-3.213,0.46-3.993,1.378c-0.56,0.679-0.933,1.598-1.118,2.754h-7.574
		c0.166-2.625,0.903-4.782,2.212-6.473c2.085-2.645,5.663-3.967,10.735-3.967c3.301,0,6.233,0.652,8.798,1.956
		c2.563,1.304,3.844,3.765,3.844,7.382V46.77c0,0.956,0.019,2.112,0.056,3.472c0.056,1.029,0.211,1.727,0.468,2.093
		c0.258,0.369,0.644,0.671,1.157,0.91V54.4h-8.539c-0.239-0.604-0.404-1.175-0.496-1.707s-0.165-1.139-0.22-1.818
		c-1.091,1.175-2.347,2.178-3.768,3.002c-1.699,0.975-3.622,1.46-5.763,1.46c-2.734,0-4.993-0.774-6.774-2.327
		c-1.783-1.55-2.674-3.75-2.674-6.597c0-3.69,1.435-6.362,4.301-8.016c1.572-0.899,3.885-1.543,6.937-1.928L223.23,36.138z
		 M228.031,39.801c-0.503,0.313-1.01,0.564-1.521,0.757c-0.513,0.194-1.214,0.373-2.106,0.539l-1.789,0.329
		c-1.675,0.295-2.878,0.653-3.608,1.074c-1.236,0.718-1.854,1.829-1.854,3.333c0,1.343,0.378,2.311,1.134,2.907
		s1.673,0.896,2.754,0.896c1.715,0,3.297-0.496,4.741-1.487c1.444-0.993,2.195-2.801,2.251-5.427V39.801z"/>
	<path d="M239.63,30.244v-5.592h4.186v-8.374h7.77v8.374h4.874v5.592h-4.874v15.867c0,1.229,0.154,1.995,0.468,2.299
		c0.311,0.304,1.267,0.454,2.865,0.454c0.236,0,0.49-0.004,0.756-0.014c0.267-0.01,0.529-0.023,0.785-0.041v5.867l-3.72,0.138
		c-3.708,0.128-6.242-0.514-7.601-1.929c-0.883-0.898-1.323-2.285-1.323-4.159V30.244H239.63z"/>
</g>
</svg>
